# xmcd
#
# Track frame offsets:
# 150
# 15621
# 30099
# 42922
# 57725
# 74650
# 87232
# 100857
# 113867
# 127579
# 146337
# 158753
# 174808
# 193499
#
# Disc length: 2817 seconds
#
#
# Revision: 0
# Processed by: cddbd v1.5.2PL0 Copyright (c) Steve Scherf et al.
# Submitted via: FreeRIP 2.945 
#
DISCID=b40aff0e
DTITLE=Luan Santana - Luan Santana - Ao Vivo no Rio
DYEAR=1900
DGENRE=Sertanejo
TTITLE0=Adrenalina
TTITLE1=Um Beijo
TTITLE2=Palácios e Castelos
TTITLE3=Química do Amor (Part. Ivete Sangalo)
TTITLE4=As Lembranças Vão na Mala
TTITLE5=Não Era pra Ser
TTITLE6=A Bússola
TTITLE7=Feiticeiro
TTITLE8=Superamor
TTITLE9=Meu Menino (Part. Belinda)
TTITLE10=Desculpas
TTITLE11=Amar Não é Pecado (Part. pianista Adelaide)
TTITLE12=Amor Distante-Inquilina de Violeiro (Part. Zezé di Camargo and Luciano)
TTITLE13=Conquistando o Impossível
EXTD=Luan Santana - CD Ao Vivo no Rio de Janeiro - 2010-2011
EXTT0=Luan Santana - Ao Vivo no Rio
EXTT1=Luan Santana - Ao Vivo no Rio
EXTT2=Luan Santana - Ao Vivo no Rio
EXTT3=Luan Santana - Ao Vivo no Rio
EXTT4=Luan Santana - Ao Vivo no Rio
EXTT5=Luan Santana - Ao Vivo no Rio
EXTT6=Luan Santana - Ao Vivo no Rio
EXTT7=Luan Santana - Ao Vivo no Rio
EXTT8=Luan Santana - Ao Vivo no Rio
EXTT9=Luan Santana - Ao Vivo no Rio
EXTT10=Luan Santana - Ao Vivo no Rio
EXTT11=Luan Santana - Ao Vivo no Rio
EXTT12=Luan Santana - Ao Vivo no Rio
EXTT13=Luan Santana - Ao Vivo no Rio
PLAYORDER=
